
        <svg xmlns="http://www.w3.org/2000/svg" xmlns:xlink="http://www.w3.org/1999/xlink" version="1.1" width="3162.1621621621625" 
        height="982.3381941586096" viewBox="0 0 3162.1621621621625 982.3381941586096">
			<rect fill="#2b3940" width="3162.1621621621625" height="982.3381941586096"/>
			<g transform="scale(8.108108108108109) translate(10, 10)">
				<defs id="SvgjsDefs1066"><linearGradient id="SvgjsLinearGradient1071"><stop id="SvgjsStop1072" stop-color="#00ff8f" offset="0"></stop><stop id="SvgjsStop1073" stop-color="#00a1ff" offset="1"></stop></linearGradient><linearGradient id="SvgjsLinearGradient1074"><stop id="SvgjsStop1075" stop-color="#00ff8f" offset="0"></stop><stop id="SvgjsStop1076" stop-color="#00a1ff" offset="1"></stop></linearGradient></defs><g id="SvgjsG1067" featureKey="7KWit6-0" transform="matrix(1.132577657699585,0,0,1.132577657699585,-3.8913325302497834,-4.8191180459371745)" fill="url(#SvgjsLinearGradient1071)"><path xmlns="http://www.w3.org/2000/svg" d="M84.554,4.255c-3.956,0-7.176,3.219-7.176,7.174c0,0.387,0.039,0.765,0.099,1.135c-4.092,2.764-9.443,7-15.568,12.325  c-4.184-1.993-8.861-3.113-13.796-3.113c-4.216,0-8.241,0.823-11.934,2.303c-8.546-4.33-15.099-4.867-18.489-1.478  c-3.615,3.615-2.559,10.319,1.195,17.912c-1.891,4.094-2.954,8.646-2.954,13.445c0,4.956,1.127,9.652,3.138,13.851  C0.588,89.162,3.108,91.712,4.198,92.802c0.469,0.469,1.055,0.767,1.897,0.767c1.784,0,4.716-1.335,10.114-5.214  c3.358-2.414,7.331-5.58,11.733-9.347c5.522,4.455,12.538,7.131,20.169,7.131c5.171,0,10.056-1.233,14.39-3.409  c3.422,1.423,6.504,2.168,9.096,2.168c2.577,0,4.677-0.725,6.17-2.218c3.033-3.033,2.954-8.486-0.202-15.778  c1.748-3.965,2.728-8.34,2.728-12.943c0-7.611-2.661-14.608-7.095-20.124c5.15-5.988,9.264-11.255,11.862-15.254  c3.721-0.262,6.67-3.365,6.67-7.15C91.73,7.474,88.511,4.255,84.554,4.255z M68.88,33.851c-5.615,6.406-12.317,13.548-19.557,20.787  c-1.203,1.202-2.43,2.414-3.659,3.618c-1.404-0.985-3.109-1.569-4.951-1.569c-1.909,0-3.67,0.63-5.102,1.681  c-5.973-6.453-10.321-12.584-13.106-17.84c4.847-9.204,14.504-15.497,25.608-15.497C56.256,25.03,63.617,28.417,68.88,33.851z   M35.322,65.33c0-2.973,2.418-5.39,5.391-5.39c2.972,0,5.39,2.417,5.39,5.39c0,2.972-2.418,5.389-5.39,5.389  C37.741,70.719,35.322,68.302,35.322,65.33z M19.991,24.902c1.997-1.996,6.534-1.603,12.413,0.984  c-4.737,2.662-8.735,6.486-11.606,11.085C18.316,31.162,18.081,26.812,19.991,24.902z M33.389,60.761  c-0.832,1.326-1.32,2.889-1.32,4.569c0,1.666,0.483,3.22,1.304,4.542c-1.906,1.731-3.707,3.335-5.405,4.817  c-5.411-5.26-8.783-12.608-8.783-20.731c0-3.423,0.602-6.707,1.697-9.756C24.099,49.713,28.496,55.486,33.389,60.761z M6.826,90.183  c0.652-2.084,4.084-7.877,13.913-19.329c1.348,2.176,2.946,4.18,4.756,5.971C15.18,85.626,9.106,89.5,6.826,90.183z M48.112,82.885  c-6.647,0-12.774-2.26-17.665-6.044c1.661-1.451,3.373-2.979,5.129-4.575c1.438,1.066,3.211,1.707,5.136,1.707  c1.897,0,3.649-0.623,5.076-1.663c4.52,3.62,8.853,6.503,12.835,8.59C55.362,82.176,51.82,82.885,48.112,82.885z M75.468,80.378  c-1.517,1.516-4.78,1.675-9.296,0.201c3.787-2.577,6.999-5.942,9.397-9.857C77.141,75.275,77.128,78.719,75.468,80.378z   M77.038,53.958c0,10.755-5.903,20.15-14.637,25.135c-4.148-1.89-9.028-4.896-14.386-9.16c0.844-1.336,1.341-2.911,1.341-4.603  c0-1.752-0.526-3.379-1.424-4.741c1.24-1.215,2.479-2.438,3.691-3.65c7.151-7.151,13.796-14.222,19.403-20.606  C74.791,41.216,77.038,47.327,77.038,53.958z M64.959,26.553c5.377-4.637,10.091-8.369,13.792-10.919  c0.724,0.995,1.693,1.796,2.82,2.314c-2.49,3.659-6.115,8.261-10.553,13.435C69.204,29.542,67.171,27.917,64.959,26.553z   M84.554,15.352c-2.162,0-3.922-1.76-3.922-3.922c0-2.162,1.76-3.92,3.922-3.92c2.163,0,3.923,1.758,3.923,3.92  C88.477,13.592,86.717,15.352,84.554,15.352z"></path><circle xmlns="http://www.w3.org/2000/svg" cx="84.426" cy="36.093" r="2.88"></circle><circle xmlns="http://www.w3.org/2000/svg" cx="63.021" cy="64.038" r="5.941"></circle><circle xmlns="http://www.w3.org/2000/svg" cx="42.211" cy="77.572" r="1.249"></circle><circle xmlns="http://www.w3.org/2000/svg" cx="70.555" cy="46.986" r="1.248"></circle><circle xmlns="http://www.w3.org/2000/svg" cx="40.963" cy="32.373" r="1.861"></circle><circle xmlns="http://www.w3.org/2000/svg" cx="24.738" cy="62.178" r="1.861"></circle><circle xmlns="http://www.w3.org/2000/svg" cx="42.425" cy="46.986" r="3.323"></circle></g><g id="SvgjsG1068" featureKey="ewgXDI-0" transform="matrix(4.204506874084473,0,0,4.204506874084473,118.31820079805824,-3.6384117381039154)" fill="url(#SvgjsLinearGradient1074)"><path d="M12.36 20 l-0.98 -2.32 l-6.58 0 l-0.98 2.32 l-3.42 0 l6.22 -14 l2.94 0 l6.22 14 l-3.42 0 z M5.92 15.059999999999999 l4.36 0 l-2.18 -5.16 z M22.14 12.879999999999999 c-0.28 -0.72 -0.7 -0.96 -1.16 -0.96 c-0.42 0 -0.84 0.24 -0.84 0.64 c0 0.38 0.24 0.6 0.7 0.76 l1.32 0.46 c1.48 0.54 2.98 1.08 2.98 3.16 c0 2.1 -2.1 3.3 -4.26 3.3 c-1.94 0 -3.76 -1.14 -4.2 -2.96 l2.48 -0.78 c0.26 0.58 0.72 1.24 1.72 1.24 c0.68 0 1.12 -0.44 1.12 -0.84 c0 -0.2 -0.16 -0.46 -0.66 -0.66 l-1.22 -0.44 c-2.08 -0.76 -3.06 -1.82 -3.06 -3.3 c0 -1.94 1.8 -3.08 3.78 -3.08 c2.02 0 3.36 1.1 3.96 2.76 z M31.82 17.36 c0.56 0 0.96 -0.08 1.4 -0.2 l0 2.62 c-0.44 0.2 -1.16 0.34 -2.22 0.34 c-1.74 0 -3.2 -0.58 -3.2 -3.78 l0 -4.14 l-1.46 0 l0 -2.6 l1.46 0 l0 -2.44 l3.16 0 l0 2.44 l2.22 0 l0 2.6 l-2.22 0 l0 4.14 c0 0.46 0.12 1.02 0.86 1.02 z M41.580000000000005 9.44 c0.28 0 0.56 0 0.82 0.06 l0 3.02 c-0.24 -0.06 -0.52 -0.06 -0.72 -0.06 c-1.92 0 -3.46 1.38 -3.62 3.3 l0 4.24 l-3.16 0 l0 -10.4 l3.16 0 l0 2.54 c0.48 -1.56 1.68 -2.7 3.52 -2.7 z M47.18 5.859999999999999 l0 2.66 l-3.16 0 l0 -2.66 l3.16 0 z M47.18 9.6 l0 10.4 l-3.16 0 l0 -10.4 l3.16 0 z M56.7 9.6 l3.16 0 l0 10.4 l-3.16 0 l0 -1.04 c-0.14 0.36 -1.08 1.24 -2.68 1.24 c-2.38 0 -5.12 -1.7 -5.12 -5.42 c0 -3.58 2.74 -5.36 5.12 -5.36 c1.6 0 2.54 0.92 2.68 1.14 l0 -0.96 z M54.480000000000004 17.42 c1.3 0 2.36 -0.9 2.36 -2.64 c0 -1.68 -1.06 -2.58 -2.36 -2.58 c-1.36 0 -2.52 0.92 -2.52 2.58 c0 1.72 1.16 2.64 2.52 2.64 z"></path></g>
			</g>
		</svg>
	